<?xml version="1.0" encoding="UTF-8"?>
<svg id="Layer_2" data-name="Layer 2" xmlns="http://www.w3.org/2000/svg" viewBox="0 0 428 58.1">
  <g id="Layer_1-2" data-name="Layer 1">
    <g>
      <g>
        <path d="M0,0h42.9v11.1h-15.3v47h-12.4V11.1H0V0Z"/>
        <path d="M43.4,58.1v-11.3L59.3,0h16.9l16,46.8v11.4h-12.4v-9.9l-1.3-4h-21.4l-1.3,4v9.9h-12.4ZM59.6,34.1h16.4l-8.2-23.9-8.2,23.9Z"/>
        <path d="M99.3,58.1V0h35.5l7.3,7.3v23l-9.7,9.8h-20.7v18.1h-12.4ZM126.9,29.4l2.9-2.9v-15.4h-18.1v18.3h15.2Z"/>
        <path d="M149.9,58.1V0h37.7v11.1h-25.3v13.2h20v9.5h-20v13.1h25.7v11.2h-38.1Z"/>
      </g>
      <g>
        <path d="M203.3,58.1l-7.4-7.4v-10.1h12v7.4h17.8v-14h-22.3l-7.3-7.3V7.3l7.3-7.3h26.6l7.4,7.3v10.8h-12v-7.9h-17.1v13.9h22.3l7.3,7.4v19.5l-7.3,7.4h-27.2Z"/>
        <path d="M242.4,0h42.9v11.1h-15.3v47h-12.4V11.1h-15.3V0Z"/>
        <path d="M297.9,58.1l-7.4-7.4V7.3l7.4-7.3h72.7l7.4,7.3v43.5l-7.4,7.4h-72.7ZM302.9,47h62.8V11.1h-62.8v35.8Z"/>
        <path d="M385.2,58.1V0h35.5l7.3,7.3v23l-9.7,9.8h-20.7v18.1h-12.4ZM412.8,29.4l2.9-2.9v-15.4h-18.1v18.3h15.2Z"/>
      </g>
    </g>
  </g>
</svg>