<?xml version="1.0" encoding="UTF-8"?>
<svg id="Layer_2" data-name="Layer 2" xmlns="http://www.w3.org/2000/svg" viewBox="0 0 52.9 53.3">
  <defs>
    <style>
      .cls-1 {
        fill: #010101;
      }
    </style>
  </defs>
  <g id="Layer_1-2" data-name="Layer 1">
    <g>
      <path class="cls-1" d="M10.4,5.4l2.9,4.1-8.3,14.4L0,23.4c.2-1.6.5-3.2,1-4.7.5-1.6,1.2-3.1,2-4.6.1-.2.2-.4.4-.6s.2-.4.4-.6c.9-1.5,1.9-2.8,3-4,1.1-1.2,2.3-2.3,3.6-3.3Z"/>
      <path class="cls-1" d="M36.8,2.1l-2.1,4.5h-16.6s-2.1-4.5-2.1-4.5c1.1-.5,2.3-.9,3.5-1.2,1.9-.5,3.8-.8,5.7-.9,0,0,.1,0,.2,0,0,0,.1,0,.2,0,.3,0,.5,0,.8,0,.3,0,.6,0,.8,0,0,0,0,0,0,0,2.4,0,4.8.5,7.2,1.2.8.2,1.6.5,2.3.9Z"/>
      <path class="cls-1" d="M42.5,5.4c.7.5,1.3,1,1.9,1.6,2,1.8,3.7,3.9,5,6.2,0,0,0,.1.1.2.1.2.3.4.4.7,0,.1.1.2.2.4.9,1.7,1.6,3.5,2.1,5.4.3,1.2.6,2.4.7,3.6l-5,.5-8.3-14.4,2.9-4.1Z"/>
      <path class="cls-1" d="M52.9,29.9c-.2,1.6-.5,3.2-1,4.8-.5,1.6-1.2,3.1-2,4.6-.1.2-.2.4-.4.6s-.2.4-.4.6c-.9,1.5-1.9,2.8-3,4-1.1,1.2-2.3,2.3-3.6,3.3l-2.9-4.1,8.3-14.4,5,.5Z"/>
      <path class="cls-1" d="M34.7,46.6l2.1,4.5c-1.1.5-2.3.9-3.5,1.2-1.9.5-3.8.8-5.7.9,0,0-.1,0-.2,0-.3,0-.7,0-1,0-.4,0-.8,0-1.1,0-2.3-.1-4.6-.5-6.9-1.2-.8-.2-1.6-.5-2.3-.9l2.1-4.5h16.6Z"/>
      <path class="cls-1" d="M5,29.4l8.3,14.4-2.9,4.1c-.7-.5-1.3-1-1.9-1.6-1.8-1.6-3.3-3.4-4.5-5.4-.2-.3-.4-.7-.6-1-.1-.2-.2-.4-.4-.6,0-.1-.1-.3-.2-.4-.9-1.7-1.5-3.4-2-5.2v-.4c-.4-1.1-.6-2.2-.7-3.4l5-.5Z"/>
    </g>
  </g>
</svg>