<svg xmlns="http://www.w3.org/2000/svg" width="1600" height="900" viewBox="0 0 1600 900">
  <defs>
    <radialGradient id="g" cx="50%" cy="50%" r="80%">
      <stop offset="0%" stop-color="#3a1f14" stop-opacity="1"/>
      <stop offset="50%" stop-color="#1a0f0a" stop-opacity="1"/>
      <stop offset="100%" stop-color="#0a0a0d" stop-opacity="1"/>
    </radialGradient>
    <filter id="n">
      <feTurbulence type="fractalNoise" baseFrequency="0.85" numOctaves="3" stitchTiles="stitch"/>
      <feColorMatrix type="saturate" values="0"/>
    </filter>
  </defs>
  <rect width="100%" height="100%" fill="url(#g)"/>
  <rect width="100%" height="100%" filter="url(#n)" opacity="0.06"/>

  <text x="80" y="100" font-family="DM Sans, sans-serif" font-size="13" font-weight="500" letter-spacing="3" fill="rgba(255,255,255,0.6)">USER FLOW</text>
  <text x="80" y="140" font-family="Lora, serif" font-size="32" fill="white" font-weight="500">Vom Hero zur Auswahl.</text>

  
  <g transform="translate(80,200)">
    <rect x="0" y="0" width="220" height="130" rx="20"
      fill="rgba(255,255,255,0.05)" stroke="rgba(255,255,255,0.18)" stroke-width="1.5"/>
    <rect x="0" y="0" width="220" height="1" fill="rgba(255,255,255,0.28)"/>
    <circle cx="28" cy="28" r="14" fill="#B07050"/>
    <text x="28" y="33" text-anchor="middle" font-family="DM Sans, sans-serif" font-size="14" font-weight="600" fill="white">1</text>
    <text x="28" y="78" font-family="Lora, serif" font-size="22" fill="white" font-weight="500">Landing</text>
    <text x="28" y="108" font-family="DM Sans, sans-serif" font-size="12" fill="rgba(255,255,255,0.55)" letter-spacing="1.5">STADT + KATEGORIE</text>
  </g>
  
  <g transform="translate(360,200)">
    <rect x="0" y="0" width="220" height="130" rx="20"
      fill="rgba(255,255,255,0.05)" stroke="rgba(255,255,255,0.18)" stroke-width="1.5"/>
    <rect x="0" y="0" width="220" height="1" fill="rgba(255,255,255,0.28)"/>
    <circle cx="28" cy="28" r="14" fill="#B07050"/>
    <text x="28" y="33" text-anchor="middle" font-family="DM Sans, sans-serif" font-size="14" font-weight="600" fill="white">2</text>
    <text x="28" y="78" font-family="Lora, serif" font-size="22" fill="white" font-weight="500">Entdecken</text>
    <text x="28" y="108" font-family="DM Sans, sans-serif" font-size="12" fill="rgba(255,255,255,0.55)" letter-spacing="1.5">KURATIERTE LISTE</text>
  </g>
  
  <g transform="translate(640,200)">
    <rect x="0" y="0" width="220" height="130" rx="20"
      fill="rgba(255,255,255,0.05)" stroke="rgba(255,255,255,0.18)" stroke-width="1.5"/>
    <rect x="0" y="0" width="220" height="1" fill="rgba(255,255,255,0.28)"/>
    <circle cx="28" cy="28" r="14" fill="#B07050"/>
    <text x="28" y="33" text-anchor="middle" font-family="DM Sans, sans-serif" font-size="14" font-weight="600" fill="white">3</text>
    <text x="28" y="78" font-family="Lora, serif" font-size="22" fill="white" font-weight="500">Event Detail</text>
    <text x="28" y="108" font-family="DM Sans, sans-serif" font-size="12" fill="rgba(255,255,255,0.55)" letter-spacing="1.5">INFO + AKTIONEN</text>
  </g>
  
  <g transform="translate(920,200)">
    <rect x="0" y="0" width="220" height="130" rx="20"
      fill="rgba(255,255,255,0.05)" stroke="rgba(255,255,255,0.18)" stroke-width="1.5"/>
    <rect x="0" y="0" width="220" height="1" fill="rgba(255,255,255,0.28)"/>
    <circle cx="28" cy="28" r="14" fill="#B07050"/>
    <text x="28" y="33" text-anchor="middle" font-family="DM Sans, sans-serif" font-size="14" font-weight="600" fill="white">4</text>
    <text x="28" y="78" font-family="Lora, serif" font-size="22" fill="white" font-weight="500">Save</text>
    <text x="28" y="108" font-family="DM Sans, sans-serif" font-size="12" fill="rgba(255,255,255,0.55)" letter-spacing="1.5">BOOKMARK ICON</text>
  </g>
  
  <g transform="translate(1200,200)">
    <rect x="0" y="0" width="220" height="130" rx="20"
      fill="rgba(255,255,255,0.05)" stroke="rgba(255,255,255,0.18)" stroke-width="1.5"/>
    <rect x="0" y="0" width="220" height="1" fill="rgba(255,255,255,0.28)"/>
    <circle cx="28" cy="28" r="14" fill="#B07050"/>
    <text x="28" y="33" text-anchor="middle" font-family="DM Sans, sans-serif" font-size="14" font-weight="600" fill="white">5</text>
    <text x="28" y="78" font-family="Lora, serif" font-size="22" fill="white" font-weight="500">Meine Spots</text>
    <text x="28" y="108" font-family="DM Sans, sans-serif" font-size="12" fill="rgba(255,255,255,0.55)" letter-spacing="1.5">GESPEICHERT</text>
  </g>

  
  <g stroke="#B07050" stroke-width="2" fill="none">
    <path d="M 300 265 L 348 265"/>
    <polygon points="348,259 360,265 348,271" fill="#B07050" stroke="none"/>
  </g>
  <text x="330" y="253" text-anchor="middle" font-family="DM Sans, sans-serif" font-size="11" fill="rgba(255,255,255,0.55)" letter-spacing="2">CTA</text>
  
  <g stroke="#B07050" stroke-width="2" fill="none">
    <path d="M 580 265 L 628 265"/>
    <polygon points="628,259 640,265 628,271" fill="#B07050" stroke="none"/>
  </g>
  <text x="610" y="253" text-anchor="middle" font-family="DM Sans, sans-serif" font-size="11" fill="rgba(255,255,255,0.55)" letter-spacing="2">TAP CARD</text>
  
  <g stroke="#B07050" stroke-width="2" fill="none">
    <path d="M 860 265 L 908 265"/>
    <polygon points="908,259 920,265 908,271" fill="#B07050" stroke="none"/>
  </g>
  <text x="890" y="253" text-anchor="middle" font-family="DM Sans, sans-serif" font-size="11" fill="rgba(255,255,255,0.55)" letter-spacing="2">BOOKMARK</text>
  
  <g stroke="#B07050" stroke-width="2" fill="none">
    <path d="M 1140 265 L 1188 265"/>
    <polygon points="1188,259 1200,265 1188,271" fill="#B07050" stroke="none"/>
  </g>
  <text x="1170" y="253" text-anchor="middle" font-family="DM Sans, sans-serif" font-size="11" fill="rgba(255,255,255,0.55)" letter-spacing="2">AUTO</text>

  <line x1="80" y1="410" x2="1520" y2="410" stroke="rgba(255,255,255,0.08)" stroke-width="1"/>

  <text x="80" y="500" font-family="DM Sans, sans-serif" font-size="13" font-weight="500" letter-spacing="3" fill="rgba(255,255,255,0.6)">ALTERNATIVE PATH</text>
  <text x="80" y="540" font-family="Lora, serif" font-size="28" fill="white" font-weight="500">Für dich — Stepwise Funnel</text>

  
  <g transform="translate(80,590)">
    <rect x="0" y="0" width="220" height="130" rx="20"
      fill="rgba(255,255,255,0.05)" stroke="rgba(255,255,255,0.18)" stroke-width="1.5"/>
    <rect x="0" y="0" width="220" height="1" fill="rgba(255,255,255,0.28)"/>
    <circle cx="28" cy="28" r="14" fill="#B07050"/>
    <text x="28" y="33" text-anchor="middle" font-family="DM Sans, sans-serif" font-size="14" font-weight="600" fill="white">A</text>
    <text x="28" y="78" font-family="Lora, serif" font-size="22" fill="white" font-weight="500">Wann?</text>
    <text x="28" y="108" font-family="DM Sans, sans-serif" font-size="12" fill="rgba(255,255,255,0.55)" letter-spacing="1.5">JETZT / HEUTE / WOCHE</text>
  </g>
  
  <g transform="translate(360,590)">
    <rect x="0" y="0" width="220" height="130" rx="20"
      fill="rgba(255,255,255,0.05)" stroke="rgba(255,255,255,0.18)" stroke-width="1.5"/>
    <rect x="0" y="0" width="220" height="1" fill="rgba(255,255,255,0.28)"/>
    <circle cx="28" cy="28" r="14" fill="#B07050"/>
    <text x="28" y="33" text-anchor="middle" font-family="DM Sans, sans-serif" font-size="14" font-weight="600" fill="white">B</text>
    <text x="28" y="78" font-family="Lora, serif" font-size="22" fill="white" font-weight="500">Was?</text>
    <text x="28" y="108" font-family="DM Sans, sans-serif" font-size="12" fill="rgba(255,255,255,0.55)" letter-spacing="1.5">ROOFTOP / MUSIK / …</text>
  </g>
  
  <g transform="translate(640,590)">
    <rect x="0" y="0" width="220" height="130" rx="20"
      fill="rgba(255,255,255,0.05)" stroke="rgba(255,255,255,0.18)" stroke-width="1.5"/>
    <rect x="0" y="0" width="220" height="1" fill="rgba(255,255,255,0.28)"/>
    <circle cx="28" cy="28" r="14" fill="#B07050"/>
    <text x="28" y="33" text-anchor="middle" font-family="DM Sans, sans-serif" font-size="14" font-weight="600" fill="white">C</text>
    <text x="28" y="78" font-family="Lora, serif" font-size="22" fill="white" font-weight="500">Wer?</text>
    <text x="28" y="108" font-family="DM Sans, sans-serif" font-size="12" fill="rgba(255,255,255,0.55)" letter-spacing="1.5">GRUPPE / 18+ / …</text>
  </g>
  
  <g transform="translate(920,590)">
    <rect x="0" y="0" width="220" height="130" rx="20"
      fill="rgba(255,255,255,0.05)" stroke="rgba(255,255,255,0.18)" stroke-width="1.5"/>
    <rect x="0" y="0" width="220" height="1" fill="rgba(255,255,255,0.28)"/>
    <circle cx="28" cy="28" r="14" fill="#B07050"/>
    <text x="28" y="33" text-anchor="middle" font-family="DM Sans, sans-serif" font-size="14" font-weight="600" fill="white">✓</text>
    <text x="28" y="78" font-family="Lora, serif" font-size="22" fill="white" font-weight="500">Resultate</text>
    <text x="28" y="108" font-family="DM Sans, sans-serif" font-size="12" fill="rgba(255,255,255,0.55)" letter-spacing="1.5">PERSONALISIERT</text>
  </g>

  
  <g stroke="#B07050" stroke-width="2" fill="none">
    <path d="M 300 655 L 348 655"/>
    <polygon points="348,649 360,655 348,661" fill="#B07050" stroke="none"/>
  </g>
  
  
  <g stroke="#B07050" stroke-width="2" fill="none">
    <path d="M 580 655 L 628 655"/>
    <polygon points="628,649 640,655 628,661" fill="#B07050" stroke="none"/>
  </g>
  
  
  <g stroke="#B07050" stroke-width="2" fill="none">
    <path d="M 860 655 L 908 655"/>
    <polygon points="908,649 920,655 908,661" fill="#B07050" stroke="none"/>
  </g>
  

  <path d="M 1140 655 Q 1310 685, 750 330" stroke="#B07050" stroke-width="2" stroke-dasharray="6 6" fill="none" opacity="0.7"/>
  <text x="1200" y="745" font-family="DM Sans, sans-serif" font-size="11" letter-spacing="2" fill="rgba(255,255,255,0.5)">FEEDS BACK INTO MAIN PATH</text>

</svg>